<svg width="386" height="142" viewBox="0 0 386 142" fill="none" xmlns="http://www.w3.org/2000/svg">
<g clip-path="url(#clip0)">
<path d="M381.74 81.63C379.59 79.17 376.6 77.65 373.75 77.56C369.95 77.44 366.49 78.77 363.76 81.41C361.02 84.06 359.4 87.62 358.58 90.95C358.32 91.3 358.1 91.69 357.97 92.13C354.65 102.9 351.81 104.51 350.41 104.51C350.15 104.51 350.05 104.47 349.87 104.27C348.58 102.88 348.14 98.52 348.33 96.05C348.42 94.88 348.58 93.49 348.78 91.95C349.16 90.25 349.43 88.59 349.56 87.05C349.56 87.02 349.56 86.99 349.56 86.96C350.15 83.65 350.92 79.99 351.87 76.31H357.04C359.25 76.31 361.04 74.52 361.04 72.31C361.04 70.1 359.25 68.31 357.04 68.31H354.24C354.78 66.73 355.34 65.2 355.94 63.75C356.78 61.71 355.81 59.37 353.77 58.53C351.73 57.69 349.39 58.66 348.55 60.7C347.57 63.08 346.67 65.66 345.85 68.31H340.88C338.67 68.31 336.88 70.1 336.88 72.31C336.88 74.52 338.67 76.31 340.88 76.31H343.66C342.41 81.48 341.48 86.52 340.91 90.6C339.18 98.04 334.94 104.55 331.32 104.55C331.28 104.55 331.25 104.55 331.22 104.55C330.98 104.15 330.64 103.2 330.4 102.55C329.74 100.7 328.81 98.1 326.65 95.89C331.21 93.13 334.16 88.84 335.24 83.22C335.66 81.05 334.24 78.95 332.07 78.54C329.9 78.12 327.8 79.54 327.39 81.71C326.75 85.03 324.99 89.31 317.77 90.89C317.92 89.49 318 88.09 318 86.69C318 86.66 317.99 86.64 317.99 86.61C318.95 78.58 320.47 70.21 323.15 63.76C324 61.72 323.03 59.38 320.99 58.53C318.95 57.68 316.61 58.65 315.76 60.69C311.79 70.24 310.16 82.95 309.24 93.53C307.9 99.53 304.85 104.48 300.61 104.48C300.28 104.48 299.25 104.48 299.25 101.94C299.24 97.94 301.8 87.8 302.79 84.23C303.34 82.26 302.31 80.2 300.41 79.44C298.79 78.79 296.98 79.28 295.89 80.56C295.43 80.09 294.92 79.66 294.38 79.28C291.05 76.92 286.71 76.63 282.78 78.5C279.12 80.24 276.24 83.59 274.45 87.99C274.43 88.04 274.4 88.07 274.38 88.12C270.97 96.69 265.58 104.5 263.08 104.5C262.74 104.5 261.85 104.5 260.89 102.22C260.47 101.22 260.13 99.97 259.89 98.53C261.6 96.35 263.12 94.22 264.37 92.39C270.75 83.06 277.56 70.22 277.56 62.14C277.56 59.57 276.89 57.46 275.58 55.87C274.52 54.59 272.52 53.06 269.06 53.06C256.75 53.06 251.42 79.03 251.42 92.28C251.42 93.6 251.46 94.87 251.55 96.07C247.26 101.13 243.56 104.27 241.92 104.4C240.51 104.4 239.46 102.17 238.96 100.84C238.69 100.11 238.44 99.29 238.23 98.4C240.37 95.09 242.36 91.55 244.09 88.21C249.48 77.81 255.77 62.35 255.77 52.98C255.77 50.49 255.33 48.53 254.41 46.98C253.13 44.8 250.93 43.56 248.38 43.56C235.25 43.56 229.14 69.79 229.14 87.51C229.14 90.12 229.27 93.37 229.76 96.64C225.78 102.26 222.95 104.46 221.93 104.56C219.53 104.56 219.53 104.16 219.53 101.95C219.52 97.95 222.08 87.81 223.07 84.24C223.62 82.27 222.59 80.21 220.69 79.45C219.04 78.79 217.19 79.31 216.11 80.64C215.69 80.23 215.24 79.85 214.76 79.52C211.45 77.18 207.12 76.9 203.18 78.78C198.96 80.78 195.78 84.85 194.05 90.19C194.02 90.26 193.99 90.32 193.97 90.4C189.88 104.14 186.56 104.52 186.53 104.52C186.3 104.52 186.13 104.51 186 104.49C185.86 103.21 186.62 100.15 187.09 98.26C188.4 92.97 190.6 84.11 182.58 81.84C178.97 80.81 175.39 81.39 172.24 83.51C171.47 84.03 170.73 84.63 170.03 85.32C169.3 84.04 168.14 82.94 166.36 82.11C163.6 80.82 160.71 80.84 158 82.16C156.24 83.02 154.65 84.43 153.24 86.16C153.4 85.58 153.58 84.97 153.77 84.36C154.41 82.25 153.22 80.01 151.11 79.37C149 78.73 146.76 79.92 146.12 82.03C142.99 92.34 142.92 98.41 143.98 108.93C144.18 110.88 145.76 112.4 147.71 112.52C149.68 112.65 151.42 111.33 151.86 109.41C153.44 102.45 157.61 91.25 161.53 89.34C162.06 89.08 162.42 89.09 162.99 89.35C163.03 89.37 163.07 89.39 163.09 89.4C163.31 90.26 162.81 92.98 162.45 94.99C161.81 98.55 161.01 102.97 161.01 108.52C161.01 110.64 162.67 112.39 164.78 112.51C164.86 112.51 164.93 112.52 165.01 112.52C167.03 112.52 168.75 111 168.98 108.97C170 100 173.04 92.61 176.71 90.15C177.92 89.34 179.06 89.15 180.41 89.53C180.73 90.73 179.83 94.35 179.34 96.33C178.15 101.11 176.92 106.06 179.69 109.6C180.73 110.93 182.77 112.52 186.54 112.52C190.03 112.52 192.82 110.49 195.06 107.5C195.43 108.07 195.84 108.61 196.29 109.1C198.35 111.3 201.1 112.52 204.04 112.52C206.94 112.52 210.21 110.95 213.04 108.29C215.2 111.88 219.22 112.56 221.94 112.56C225.45 112.56 229.09 109.94 232.56 106.04C235.46 111.52 239.58 112.41 241.95 112.41C245.63 112.41 249.79 109.5 253.68 105.64C256.33 111.61 260.71 112.51 263.11 112.51C267.3 112.51 271.01 109.42 274.07 105.44C274.7 106.77 275.5 107.99 276.47 109.02C278.59 111.27 281.31 112.51 284.13 112.51C284.16 112.51 284.2 112.51 284.23 112.51C287.31 112.48 290.39 110.93 292.98 108.43C294.61 110.99 297.29 112.49 300.62 112.49C303.58 112.49 306.17 111.57 308.4 110C308.94 111.34 310.18 112.34 311.71 112.49C311.84 112.5 311.97 112.51 312.09 112.51C314.13 112.51 315.87 110.96 316.07 108.89C316.25 107.03 316.4 104.86 316.58 102.35C316.64 101.49 316.71 100.59 316.78 99.67C321.11 100.3 321.87 102.45 322.87 105.25C323.85 107.98 325.48 112.56 331.32 112.56C335.62 112.56 339.21 110.2 342.06 106.71C342.56 107.81 343.2 108.84 344.01 109.72C345.71 111.55 347.92 112.52 350.42 112.52C354.88 112.52 358.13 109.73 360.5 106.24C361.19 107.49 362.02 108.66 363.01 109.63C364.95 111.52 367.25 112.52 369.69 112.52C369.76 112.52 369.83 112.52 369.9 112.52C376.77 112.36 384.22 107.02 385.4 95.45C386.12 88.3 383.81 83.99 381.74 81.63ZM263.2 70.37C265.94 62.72 268.55 61.07 269.05 61.07C269.23 61.07 269.36 61.08 269.45 61.1C269.92 62.44 269.22 67.84 264.03 77.58C262.72 80.03 261.34 82.39 259.92 84.63C260.53 79.69 261.67 74.63 263.2 70.37ZM212.03 93.34C212.03 93.36 212.03 93.39 212.02 93.41C212.02 93.41 212.02 93.41 212.02 93.42C211.35 100.16 205.78 104.51 204.01 104.51C203.29 104.51 202.65 104.22 202.11 103.64C201.01 102.46 200.48 100.37 200.65 97.91C201.13 90.98 204.03 87.22 206.58 86.01C207.03 85.8 207.71 85.55 208.46 85.55C209 85.55 209.58 85.68 210.12 86.06C211.67 87.14 212.38 89.86 212.03 93.34ZM247.72 51.67C248.51 55.48 245.09 68.78 237.2 84.1C237.89 67.06 243.64 53.07 247.72 51.67ZM291.76 93.33C291.76 93.36 291.76 93.38 291.75 93.41C291.08 100.16 286.05 104.49 284.11 104.51C283.34 104.56 282.6 103.9 282.25 103.54C280.96 102.17 280.29 99.87 280.46 97.37C280.93 90.58 283.73 86.91 286.19 85.74C286.63 85.53 287.29 85.29 288.03 85.29C288.59 85.29 289.18 85.43 289.75 85.83C291.37 86.97 292.11 89.77 291.76 93.33ZM377.43 94.63C376.7 101.81 372.81 104.44 369.71 104.51C369.4 104.5 369.01 104.31 368.59 103.9C367.05 102.4 365.9 99.12 365.9 96.27C365.9 93.39 367.08 89.34 369.32 87.16C370.45 86.07 371.7 85.56 373.25 85.56C373.33 85.56 373.41 85.56 373.48 85.56C373.85 85.57 374.8 85.87 375.71 86.91C377.16 88.55 377.77 91.29 377.43 94.63Z" fill="#30261A"/>
<path d="M136.68 16.17C131.46 12.44 124.61 12.53 118.37 16.41C114.06 19.09 110.17 21.31 106.8 23.02C106.04 23.41 105.16 23.43 104.36 23.12C105 17.09 103.82 10.98 100.84 4.94C99.42 2.06 96.43 0.479992 93.22 0.919992C90.03 1.35999 87.58 3.66999 86.98 6.80999C86.44 9.68999 85.27 12.02 83.49 13.76C78.79 12.89 73.92 12.79 69 13.49C63.38 14.28 58.11 15.84 53.3 18.12C51.04 16.94 49.21 14.99 47.86 12.31C46.42 9.44999 43.43 7.89999 40.24 8.36999C37.04 8.82999 34.6 11.18 34.03 14.34C32.84 20.93 33.37 27.1 35.61 32.69C34.98 33.09 34.26 33.24 33.56 33.09C31.53 32.65 29.09 31.92 26.01 31C24.89 30.66 23.68 30.3 22.38 29.92C15.48 27.9 9.11001 29.25 4.91001 33.64C0.530007 38.22 -0.729997 45.38 1.64 52.33C3.3 57.2 6.85 60.93 11.9 63.14C18.5 66.02 26.42 65.84 32.9 64.2C33.02 65.92 33.21 67.65 33.47 69.44C33.49 69.58 33.52 69.71 33.55 69.85C34.36 75.61 34.27 81.52 34.19 87.24C34.18 87.95 34.17 88.65 34.16 89.35C33.99 89.59 33.83 89.83 33.67 90.07C30.95 94.27 28.1 103.08 39.34 114.88C41.42 117.42 50.23 125.13 61.48 127.56C70.38 133.04 77.55 135.66 83.74 135.66C84.72 135.66 85.68 135.59 86.62 135.46C88.44 135.2 90.24 134.72 92.04 134.01C92.32 134.22 92.6 134.44 92.89 134.65C94.02 135.49 95.23 136.38 96.49 137.36C97.42 138.07 98.29 138.77 99.1 139.44C100.48 140.57 102.15 141.16 103.85 141.16C104.75 141.16 105.67 140.99 106.55 140.66C109.1 139.69 110.88 137.5 111.31 134.8C112.14 129.55 111.74 124.08 110.01 119.56C113.3 117.63 116.28 115.44 118.84 113.03C118.88 112.99 118.92 112.95 118.96 112.91C133.34 98.14 131.61 84.3 125.57 76.56C125.09 74.84 124.56 73.08 124.01 71.23C122.62 66.61 121.18 61.84 120.56 57.46C120.29 55.51 119.93 53.59 119.51 51.72C131.09 52.1 140.64 43.52 142.82 34.01C144.44 26.99 142.03 19.99 136.68 16.17Z" fill="#30261A"/>
<path d="M106.03 132.77C106.04 132.78 106.03 132.79 106.03 132.79C105.38 134.6 103.07 135.31 101.48 134.02C100.79 133.45 100.06 132.86 99.27 132.26C95.62 129.42 92.38 127.4 90.57 125.14C92.85 124.6 95.11 123.96 97.34 123.23C98.29 122.91 99.23 122.57 100.16 122.21C101.21 121.82 102.24 121.39 103.27 120.94C103.67 120.76 104.07 120.58 104.46 120.4C106.18 124.04 106.47 128.85 106.03 132.77Z" fill="#459662"/>
<path d="M86.83 125.92C87.41 126.72 88.12 127.49 88.91 128.24C87.87 128.6 86.8 128.87 85.72 129.02C82.37 129.49 78.55 128.63 74.67 127.07C78.76 127.05 82.82 126.63 86.83 125.92Z" fill="#CBC9C9"/>
<path d="M95.01 7.82C94.77 7.34 94.34 7.33 94.1 7.36C93.82 7.4 93.46 7.54 93.37 8.02C92.72 11.46 91.38 14.43 89.42 16.86C92.45 17.94 95.32 19.37 97.99 21.13C98.21 16.76 97.21 12.29 95.01 7.82Z" fill="#AD9E8F"/>
<path d="M42.06 15.23C41.89 14.88 41.6 14.79 41.35 14.79C41.29 14.79 41.23 14.79 41.18 14.8C40.94 14.83 40.53 14.97 40.44 15.49C39.58 20.23 39.82 24.66 41.11 28.7C43.26 26.44 45.68 24.42 48.33 22.66C45.77 20.86 43.64 18.37 42.06 15.23Z" fill="#AD9E8F"/>
<path d="M102.78 62.22C102.61 62.73 102.06 63.01 101.56 62.84C101.05 62.68 100.77 62.13 100.93 61.62C101.09 61.11 101.64 60.83 102.15 61C102.66 61.16 102.94 61.71 102.78 62.22Z" fill="#EFEFF0"/>
<path d="M98.82 56.14C99.23 54.86 100.61 54.15 101.9 54.57C103.18 54.98 103.89 56.36 103.47 57.64C103.06 58.93 101.68 59.63 100.4 59.22C99.11 58.8 98.41 57.43 98.82 56.14Z" fill="#EFEFF0"/>
<path d="M114.14 58.35C113.73 55.46 113.34 53.45 112.58 50.82C109.74 50.48 105.87 45.44 103.24 44.09C101.01 42.84 97.59 41.83 91.49 41.7C84.39 41.54 76.88 35.07 75.71 28.12C75.16 24.83 76.09 21.92 78.32 19.64C75.6 19.43 72.79 19.52 69.91 19.93C65.15 20.6 60.7 21.88 56.68 23.72C50.78 26.42 45.8 30.31 42.11 35.2C41.97 35.38 41.84 35.57 41.7 35.76C39.53 38.77 35.76 40.2 32.1 39.4C29.84 38.91 27.34 38.16 24.17 37.21C23.05 36.88 21.86 36.52 20.57 36.15C16.01 34.81 12.12 35.51 9.62 38.13C6.92 40.94 6.22 45.58 7.8 50.22C8.87 53.36 11.13 55.7 14.51 57.17C19.97 59.55 28.02 59.4 34.53 56.88C34.71 55.64 34.95 54.4 35.3 53.19C35.84 51.43 36.7 49.81 37.86 48.41L37.89 48.38C38.13 48.09 38.57 48.05 38.87 48.29C39 48.41 39.08 48.56 39.11 48.72C39.42 50.62 39.3 52.28 39.27 53.9C39.19 55.36 39.16 56.8 39.19 58.26C39.22 58.41 39.24 58.56 39.24 58.72C39.24 59.11 39.25 59.53 39.25 59.94C39.31 61.15 39.39 62.36 39.49 63.57C39.6 64.97 39.75 66.37 39.86 67.79C39.9 68.17 39.94 68.53 40 68.91C40.59 73.15 40.74 77.13 40.74 80.83C40.74 82.77 40.7 84.63 40.66 86.4C42.92 84.83 45.35 83.63 47.8 82.6C48.15 82.46 48.55 82.61 48.7 82.94C52.83 80.87 57.66 79.12 62.82 77.68C62.8 77.65 62.79 77.62 62.79 77.59C62.77 77.38 62.9 77.18 63.08 77.09C65.16 76.09 67.33 75.34 69.53 74.71C71.73 74.07 73.98 73.61 76.23 73.22C78.49 72.86 80.76 72.59 83.04 72.48C85.32 72.36 87.62 72.36 89.91 72.62C90.16 72.65 90.34 72.85 90.36 73.09C94.93 72.79 99.32 72.72 103.29 72.91C103.29 72.89 103.29 72.87 103.3 72.84C103.34 72.5 103.64 72.24 103.98 72.23C107.62 72.12 111.28 72.2 115.01 72.88C115.94 73.05 116.87 73.27 117.81 73.56C116.39 69.02 114.92 63.96 114.14 58.35ZM28.92 50.06H28.9C28.77 50.05 28.63 50.05 28.5 50.03C26.62 49.91 24.77 49.49 23.06 48.86C21.22 48.2 19.54 47.31 18.04 46.65C17.29 46.33 16.58 46.08 15.98 45.98C15.68 45.93 15.4 45.91 15.14 45.93C15.01 45.95 14.88 45.96 14.75 45.99C14.64 46.01 14.43 46.09 14.4 46.07C14.29 46.06 14.26 46.02 14.14 46.07C14.02 46.12 13.86 46.3 13.75 46.58C13.51 47.15 13.48 47.92 13.05 48.86L13.02 48.92C12.91 49.17 12.69 49.34 12.43 49.39C12.26 49.42 12.08 49.41 11.91 49.33C11.82 49.29 11.73 49.23 11.67 49.16C10.86 48.35 10.62 47.32 10.63 46.12C10.64 45.51 10.75 44.82 11.11 44.11C11.48 43.41 12.16 42.78 12.88 42.43C14.12 41.88 15.39 41.82 16.57 41.97C17.75 42.13 18.73 42.51 19.63 42.87C21.41 43.62 22.91 44.39 24.46 44.9C25.99 45.43 27.53 45.75 29.1 45.81C30.27 45.86 31.18 46.85 31.13 48.03C31.09 49.2 30.1 50.11 28.92 50.06ZM65.14 64.79C65.11 64.83 65.09 64.87 65.05 64.9C64.89 65.02 64.69 65.07 64.51 65.04H64.46C62.69 64.82 61.18 64.78 59.69 64.87C58.21 64.97 56.79 65.21 55.39 65.58C54.08 65.93 52.68 66.54 51.29 67.25C49.9 67.96 48.52 68.77 47.1 69.75L47.04 69.79C46.7 70.03 46.24 69.94 46 69.6C45.88 69.42 45.85 69.21 45.89 69.01C46.33 67.04 47.51 65.39 48.9 64.02C50.32 62.66 52.03 61.57 54.07 60.96C54.43 60.85 54.81 60.77 55.18 60.7C54.07 60.5 52.86 60.39 51.62 60.36C50.05 60.3 48.46 60.35 46.73 60.52H46.67C46.26 60.57 45.89 60.27 45.85 59.86C45.83 59.64 45.91 59.43 46.04 59.28C47.38 57.78 49.21 56.9 51.09 56.37C52.98 55.87 55.01 55.74 57.09 56.19C59.09 56.63 60.98 57.55 62.5 58.92C64.01 60.28 65.17 62.09 65.45 64.09C65.49 64.37 65.36 64.63 65.14 64.79ZM107.4 55.07C107.21 55.17 107 55.19 106.8 55.12L106.74 55.1C106.18 54.91 105.62 54.75 105.08 54.59C106.12 56.48 106.42 58.78 105.7 60.99C104.33 65.25 99.76 67.59 95.49 66.22C91.23 64.84 88.89 60.27 90.27 56.01C90.44 55.49 90.65 55 90.91 54.54C90.22 54.77 89.51 55.04 88.75 55.35L88.71 55.37C88.32 55.54 87.88 55.35 87.71 54.97C87.63 54.78 87.64 54.58 87.7 54.4C88.42 52.51 89.96 51.01 91.73 50.03C93.52 49.03 95.57 48.55 97.61 48.57C99.74 48.59 101.69 49.17 103.43 50.08C105.14 51.02 106.73 52.29 107.7 54.05C107.89 54.42 107.76 54.87 107.4 55.07Z" fill="#EFEFF0"/>
<path d="M18.04 46.65C17.29 46.33 16.58 46.08 15.98 45.98C15.68 45.93 15.4 45.91 15.14 45.93C15.01 45.95 14.88 45.96 14.75 45.99C14.64 46.01 14.43 46.09 14.4 46.07C14.29 46.06 14.26 46.02 14.14 46.07C14.02 46.12 13.86 46.3 13.75 46.58C13.51 47.15 13.48 47.92 13.05 48.86L13.02 48.92C12.91 49.17 12.69 49.34 12.43 49.39C13.29 53.81 17.77 56.67 23.11 55.45C24.64 55.1 26.02 54.52 27.22 53.8C27.44 53.66 27.59 53.42 27.63 53.16C27.72 52.57 28.16 51.15 28.5 50.03C26.62 49.91 24.77 49.49 23.06 48.86C21.22 48.2 19.54 47.31 18.04 46.65Z" fill="#F7BAAA"/>
<path d="M121.35 81.34C120.88 80.77 120.44 80.17 120.07 79.54C119.85 79.28 119.62 79.02 119.36 78.79L118.95 78.39L118.54 78.06C117.38 77.18 115.81 76.51 114.21 75.94C112.59 75.39 110.89 74.95 109.16 74.58C107.43 74.2 105.67 73.9 103.9 73.65C103.53 73.59 103.27 73.27 103.29 72.91C99.32 72.72 94.93 72.79 90.36 73.09V73.18C90.34 73.4 90.18 73.57 89.98 73.62C87.76 74.19 85.55 74.62 83.34 75.02C81.13 75.44 78.92 75.8 76.71 76.18C74.5 76.52 72.3 76.89 70.07 77.21C67.85 77.54 65.63 77.86 63.34 78.05C63.1 78.08 62.88 77.92 62.82 77.68C57.66 79.12 52.83 80.87 48.7 82.94C48.72 82.95 48.72 82.96 48.73 82.98C48.87 83.31 48.75 83.68 48.46 83.86H48.45C45.45 85.76 42.62 87.93 40.45 90.49C39.51 91.62 38.71 92.84 38.18 94.07C38.11 94.24 38.04 94.4 37.98 94.57C37.46 95.98 37.33 97.43 37.54 98.87C37.74 101.77 39.23 104.77 41.23 107.42C41.7 108.11 42.29 108.73 42.81 109.39C43.39 110.01 43.94 110.66 44.56 111.26C45.17 111.86 45.76 112.48 46.42 113.05L47.38 113.92C47.7 114.2 48.04 114.44 48.37 114.7C50.78 116.73 53.59 118.28 56.55 119.48C56.56 119.48 56.56 119.49 56.57 119.49C56.75 119.57 56.92 119.64 57.1 119.71C58.66 120.38 60.32 120.82 61.96 121.3C62.79 121.5 63.64 121.66 64.47 121.84C65.31 122.04 66.16 122.15 67.02 122.26C73.46 123.18 80.11 122.85 86.57 121.64C86.96 121.57 87.34 121.5 87.73 121.42C93.1 120.25 98.4 118.55 103.31 116.15C104.62 115.51 105.91 114.82 107.15 114.08C108.31 113.39 109.45 112.65 110.54 111.86C110.54 111.85 110.55 111.84 110.55 111.84C110.55 111.84 110.56 111.84 110.56 111.83C115.02 108.61 118.79 104.54 121.21 99.78C122.48 97.28 123.33 94.59 123.64 91.88C123.7 91.38 123.74 90.88 123.76 90.38C123.82 88.78 123.67 87.19 123.29 85.68C122.92 84.09 122.16 82.67 121.35 81.34ZM64.32 107.17C62.92 109.47 59.53 109.25 56.75 106.69C53.97 104.14 52.85 100.2 54.25 97.9C55.65 95.61 59.04 95.82 61.82 98.38C61.92 98.48 62.03 98.58 62.13 98.68L62.22 98.77C62.29 98.85 62.37 98.93 62.44 99.01C62.47 99.04 62.49 99.07 62.52 99.1C62.61 99.2 62.7 99.31 62.79 99.42C62.81 99.44 62.82 99.45 62.83 99.47C62.91 99.56 62.99 99.66 63.06 99.76C63.08 99.79 63.11 99.82 63.13 99.85C63.2 99.95 63.27 100.05 63.34 100.14C63.35 100.16 63.36 100.18 63.37 100.2C63.45 100.32 63.53 100.44 63.6 100.56C63.62 100.58 63.63 100.6 63.64 100.62C63.7 100.72 63.76 100.82 63.82 100.93C63.83 100.95 63.85 100.98 63.86 101C64 101.25 64.12 101.51 64.23 101.76C64.24 101.78 64.25 101.79 64.25 101.81C64.3 101.93 64.35 102.04 64.4 102.16C64.4 102.17 64.41 102.19 64.41 102.2C64.51 102.46 64.59 102.73 64.66 102.99C64.67 103 64.67 103.01 64.67 103.02C64.78 103.42 64.85 103.81 64.89 104.2V104.23C64.99 105.32 64.82 106.35 64.32 107.17ZM105.51 99.84C105.43 99.96 105.36 100.08 105.28 100.2C105.25 100.23 105.23 100.27 105.21 100.3C105.15 100.39 105.08 100.48 105.02 100.56C105 100.59 104.98 100.62 104.96 100.65C104.87 100.76 104.79 100.86 104.7 100.97C104.69 100.98 104.68 101 104.66 101.01C104.59 101.1 104.51 101.19 104.44 101.27C104.41 101.3 104.39 101.32 104.36 101.35C104.29 101.43 104.21 101.51 104.13 101.58C104.12 101.6 104.1 101.61 104.09 101.63C104 101.72 103.9 101.8 103.81 101.88C103.79 101.9 103.77 101.91 103.76 101.93C103.67 102 103.59 102.06 103.51 102.12C103.49 102.14 103.47 102.16 103.45 102.17C103.25 102.32 103.05 102.46 102.84 102.58C102.83 102.59 102.82 102.6 102.8 102.6C102.71 102.66 102.62 102.71 102.52 102.75C102.51 102.76 102.5 102.77 102.49 102.77C102.28 102.88 102.06 102.96 101.85 103.04C101.84 103.04 101.83 103.04 101.82 103.05C101.5 103.15 101.18 103.22 100.86 103.24C100.85 103.24 100.84 103.24 100.84 103.24C99.93 103.31 99.07 103.04 98.36 102.39C96.39 100.57 96.38 96.48 98.35 93.25C100.31 90.02 103.51 88.88 105.49 90.7C107.47 92.52 107.48 96.61 105.51 99.84Z" fill="#F7BAAA"/>
<path d="M133.07 32.04C131.55 20.88 125.28 33.49 117.78 35.06C117.18 35.19 116.86 35.83 117.15 36.36C117.56 37.11 119.17 39.44 119.54 40.25C119.65 40.49 119.86 40.67 120.11 40.74C121.46 41.11 122.95 41.28 124.52 41.2C130.14 40.88 133.71 36.68 133.07 32.04Z" fill="#F7BAAA"/>
<path d="M103.26 126.16L101.99 125.99C102.61 127.54 103.07 129.15 103.34 130.78C103.41 131.17 103.15 131.54 102.76 131.61C102.45 131.66 102.15 131.5 102.01 131.24L101.99 131.2C101.2 129.71 100.52 128.22 99.65 126.82C99.48 126.54 99.31 126.27 99.14 125.99C98.74 126.76 98.74 126.58 97.97 127.7C97.75 128.03 97.37 128.22 96.97 128.22C96.73 128.22 96.49 128.15 96.29 128.01C96.09 127.88 95.94 127.68 95.86 127.47C95.83 127.39 95.8 127.32 95.79 127.24C95.73 126.92 95.8 126.6 95.98 126.33C97.19 124.56 97.37 124.15 97.55 123.56C97.48 123.45 97.41 123.34 97.34 123.23C98.29 122.91 99.23 122.57 100.16 122.21C100.41 122.6 100.63 122.99 100.85 123.4C100.85 123.42 100.86 123.43 100.87 123.45L103.39 123.75C104.05 123.82 104.53 124.41 104.47 125.07C104.4 125.69 103.89 126.16 103.26 126.16Z" fill="#1F603F"/>
<path d="M102.78 62.22C102.61 62.73 102.06 63.01 101.56 62.84C101.05 62.68 100.77 62.13 100.93 61.62C101.09 61.11 101.64 60.83 102.15 61C102.66 61.16 102.94 61.71 102.78 62.22Z" fill="#30261A"/>
<path d="M103.47 57.64C103.06 58.93 101.68 59.63 100.4 59.22C99.11 58.8 98.41 57.43 98.82 56.14C99.23 54.86 100.61 54.15 101.9 54.57C103.18 54.98 103.89 56.36 103.47 57.64Z" fill="#30261A"/>
<path d="M103.47 57.64C103.06 58.93 101.68 59.63 100.4 59.22C99.11 58.8 98.41 57.43 98.82 56.14C99.23 54.86 100.61 54.15 101.9 54.57C103.18 54.98 103.89 56.36 103.47 57.64Z" fill="white"/>
<path d="M102.78 62.22C102.61 62.73 102.06 63.01 101.56 62.84C101.05 62.68 100.77 62.13 100.93 61.62C101.09 61.11 101.64 60.83 102.15 61C102.66 61.16 102.94 61.71 102.78 62.22Z" fill="white"/>
<path d="M145.17 129.63C145.17 129.12 145.26 128.66 145.45 128.23C145.64 127.8 145.91 127.43 146.27 127.12C146.63 126.81 147.08 126.56 147.62 126.39C148.16 126.22 148.78 126.13 149.49 126.13C149.8 126.13 150.13 126.15 150.48 126.2C150.83 126.25 151.16 126.33 151.46 126.44C151.76 126.55 152.01 126.71 152.21 126.91C152.41 127.11 152.51 127.36 152.51 127.67C152.51 127.92 152.46 128.13 152.37 128.28C152.28 128.43 152.16 128.55 152.02 128.64C151.88 128.73 151.73 128.78 151.58 128.81C151.43 128.84 151.29 128.85 151.17 128.85C151 128.85 150.84 128.83 150.7 128.78C150.56 128.73 150.42 128.69 150.28 128.64C150.14 128.59 149.98 128.55 149.81 128.5C149.64 128.45 149.43 128.43 149.19 128.43C148.35 128.43 147.93 128.7 147.93 129.23C147.93 129.47 148.1 129.66 148.43 129.81C148.75 129.96 149.12 130.1 149.53 130.23C149.94 130.36 150.33 130.54 150.7 130.75C151.07 130.96 151.38 131.24 151.64 131.59C151.9 131.94 152.03 132.4 152.03 132.97C152.03 134.05 151.65 134.91 150.89 135.56C150.13 136.21 149.05 136.53 147.65 136.53C147.34 136.53 146.99 136.51 146.6 136.47C146.21 136.43 145.84 136.35 145.49 136.24C145.14 136.13 144.85 135.98 144.62 135.79C144.39 135.6 144.27 135.36 144.27 135.07C144.27 134.76 144.41 134.47 144.68 134.2C144.95 133.93 145.3 133.79 145.73 133.79C145.89 133.79 146.05 133.81 146.21 133.86C146.37 133.91 146.54 133.96 146.71 134.01C146.88 134.06 147.07 134.11 147.27 134.16C147.47 134.21 147.69 134.23 147.93 134.23C148.32 134.23 148.64 134.16 148.89 134.01C149.14 133.86 149.27 133.64 149.27 133.33C149.27 133.18 149.24 133.07 149.17 132.99C149.1 132.91 149.02 132.84 148.93 132.79C148.65 132.62 148.3 132.47 147.87 132.34C147.44 132.21 147.03 132.05 146.63 131.85C146.23 131.65 145.89 131.38 145.6 131.04C145.31 130.7 145.17 130.23 145.17 129.63Z" fill="#6F655C"/>
<path d="M155.37 127.41C155.42 127.08 155.6 126.79 155.9 126.55C156.2 126.31 156.54 126.19 156.93 126.19C157.32 126.19 157.63 126.31 157.86 126.55C158.09 126.79 158.18 127.08 158.13 127.41L157.21 133.93C157.18 134.14 157.18 134.3 157.19 134.39C157.2 134.48 157.27 134.6 157.39 134.75C157.46 134.84 157.52 134.93 157.57 135C157.62 135.07 157.65 135.18 157.65 135.33C157.65 135.72 157.5 136.01 157.21 136.22C156.92 136.43 156.51 136.53 155.99 136.53C155.79 136.53 155.58 136.51 155.36 136.46C155.14 136.41 154.95 136.31 154.78 136.14C154.61 135.97 154.49 135.73 154.41 135.42C154.33 135.11 154.33 134.69 154.41 134.17L155.37 127.41ZM158.87 123.37C158.87 123.8 158.7 124.16 158.35 124.46C158 124.76 157.59 124.91 157.11 124.91C156.7 124.91 156.36 124.79 156.11 124.54C155.86 124.29 155.73 124 155.73 123.65C155.73 123.22 155.91 122.86 156.26 122.56C156.61 122.26 157.03 122.11 157.51 122.11C157.91 122.11 158.24 122.23 158.49 122.48C158.74 122.73 158.87 123.03 158.87 123.37Z" fill="#6F655C"/>
<path d="M166.53 130.07C166.6 129.56 166.54 129.17 166.35 128.88C166.16 128.59 165.87 128.45 165.47 128.45C165.07 128.45 164.54 128.59 163.87 128.87C163.87 128.94 163.87 129 163.87 129.06C163.87 129.12 163.86 129.18 163.85 129.25L163.01 135.29C162.96 135.64 162.8 135.93 162.54 136.16C162.28 136.39 161.92 136.51 161.45 136.51C160.98 136.51 160.65 136.39 160.46 136.16C160.27 135.93 160.2 135.64 160.25 135.29L161.09 129.23C161.14 128.9 161.16 128.69 161.13 128.61C161.1 128.53 161.08 128.46 161.05 128.39C160.96 128.24 160.89 128.12 160.86 128.03C160.83 127.94 160.81 127.84 160.81 127.73C160.81 127.37 160.96 127.07 161.26 126.82C161.56 126.57 161.92 126.45 162.33 126.45C162.73 126.45 163.06 126.64 163.31 127.03C163.8 126.72 164.29 126.5 164.76 126.37C165.23 126.24 165.67 126.17 166.07 126.17C167.34 126.17 168.23 126.53 168.76 127.24C169.29 127.95 169.46 128.9 169.29 130.07L168.75 133.93C168.72 134.14 168.72 134.3 168.74 134.39C168.76 134.48 168.83 134.6 168.95 134.75C169.02 134.84 169.08 134.93 169.13 135C169.18 135.07 169.21 135.18 169.21 135.33C169.21 135.72 169.06 136.01 168.77 136.22C168.48 136.43 168.07 136.53 167.55 136.53C167.35 136.53 167.14 136.51 166.92 136.46C166.7 136.41 166.51 136.31 166.34 136.14C166.17 135.97 166.05 135.73 165.97 135.42C165.89 135.11 165.89 134.69 165.97 134.17L166.53 130.07Z" fill="#6F655C"/>
<path d="M171.93 130.01C172.01 129.48 172.16 128.98 172.39 128.51C172.62 128.04 172.92 127.64 173.31 127.3C173.7 126.96 174.16 126.69 174.71 126.49C175.26 126.29 175.89 126.19 176.61 126.19C176.89 126.19 177.21 126.21 177.58 126.25C177.95 126.29 178.29 126.37 178.62 126.48C178.95 126.59 179.22 126.75 179.45 126.96C179.68 127.17 179.79 127.44 179.79 127.77C179.79 127.89 179.77 128.02 179.73 128.16C179.69 128.3 179.62 128.43 179.52 128.55C179.42 128.67 179.28 128.77 179.1 128.84C178.92 128.91 178.68 128.95 178.39 128.95C178.28 128.95 178.18 128.94 178.09 128.93C178 128.92 177.88 128.88 177.75 128.83C177.55 128.75 177.36 128.67 177.18 128.6C177 128.53 176.76 128.49 176.45 128.49C175.89 128.49 175.47 128.63 175.2 128.9C174.93 129.17 174.76 129.54 174.69 130.01L174.31 132.71C174.24 133.18 174.31 133.55 174.5 133.82C174.69 134.09 175.07 134.23 175.63 134.23C175.94 134.23 176.2 134.19 176.41 134.12C176.62 134.05 176.84 133.97 177.05 133.89C177.16 133.85 177.25 133.82 177.34 133.8C177.43 133.78 177.54 133.77 177.69 133.77C178.14 133.77 178.45 133.86 178.6 134.05C178.75 134.24 178.83 134.44 178.83 134.65C178.83 135.04 178.7 135.35 178.43 135.6C178.16 135.85 177.84 136.04 177.45 136.18C177.06 136.32 176.66 136.41 176.24 136.46C175.82 136.51 175.45 136.53 175.13 136.53C174.42 136.53 173.83 136.43 173.34 136.23C172.85 136.03 172.46 135.76 172.17 135.42C171.88 135.08 171.68 134.68 171.58 134.21C171.48 133.74 171.47 133.24 171.55 132.71L171.93 130.01Z" fill="#6F655C"/>
<path d="M185.25 132.57C184.98 132.57 184.73 132.56 184.5 132.54C184.27 132.52 184.01 132.49 183.73 132.45L183.63 133.11C183.58 133.46 183.67 133.73 183.9 133.93C184.13 134.13 184.52 134.23 185.07 134.23C185.39 134.23 185.7 134.19 185.99 134.12C186.28 134.05 186.6 133.94 186.95 133.79C186.99 133.76 187.06 133.74 187.15 133.71C187.24 133.68 187.38 133.67 187.55 133.67C187.98 133.67 188.27 133.78 188.42 133.99C188.57 134.2 188.65 134.42 188.65 134.63C188.65 135 188.5 135.31 188.2 135.56C187.9 135.81 187.53 136 187.1 136.15C186.67 136.3 186.22 136.4 185.75 136.45C185.28 136.5 184.88 136.53 184.55 136.53C183.9 136.53 183.32 136.44 182.83 136.26C182.34 136.08 181.94 135.83 181.63 135.52C181.32 135.21 181.11 134.84 180.98 134.41C180.85 133.98 180.82 133.52 180.89 133.03L181.35 129.69C181.42 129.18 181.57 128.71 181.82 128.28C182.07 127.85 182.39 127.47 182.79 127.15C183.19 126.83 183.67 126.58 184.23 126.4C184.79 126.22 185.42 126.13 186.11 126.13C187.3 126.13 188.18 126.4 188.75 126.93C189.32 127.46 189.61 128.17 189.61 129.05C189.61 130.13 189.27 130.99 188.58 131.62C187.89 132.25 186.78 132.57 185.25 132.57ZM186.85 129.17C186.85 128.85 186.76 128.62 186.58 128.48C186.4 128.34 186.14 128.27 185.79 128.27C185.31 128.27 184.93 128.39 184.65 128.62C184.37 128.85 184.2 129.17 184.13 129.57L184.01 130.43C184.33 130.46 184.62 130.48 184.89 130.49C185.16 130.5 185.34 130.51 185.45 130.51C185.88 130.51 186.22 130.41 186.47 130.22C186.72 130.03 186.85 129.68 186.85 129.17Z" fill="#6F655C"/>
<path d="M206.28 134.99C206.28 135.38 206.12 135.71 205.81 135.98C205.5 136.25 205.13 136.39 204.7 136.39H198.12C197.73 136.39 197.43 136.28 197.21 136.06C196.99 135.84 196.88 135.56 196.88 135.23C196.88 135 196.91 134.8 196.96 134.62C197.01 134.44 197.09 134.28 197.18 134.13C197.7 133.25 198.35 132.47 199.12 131.79C199.89 131.11 200.68 130.45 201.48 129.81C201.81 129.54 202.17 129.27 202.54 128.98C202.91 128.69 203.26 128.39 203.58 128.08C203.9 127.77 204.17 127.43 204.38 127.07C204.59 126.71 204.7 126.33 204.7 125.93C204.7 125.49 204.57 125.12 204.3 124.82C204.03 124.52 203.62 124.37 203.06 124.37C202.71 124.37 202.4 124.4 202.13 124.45C201.86 124.5 201.59 124.58 201.34 124.69C201.11 124.78 200.88 124.9 200.64 125.03C200.4 125.16 200.13 125.23 199.84 125.23C199.52 125.23 199.24 125.13 199 124.94C198.76 124.75 198.64 124.48 198.64 124.15C198.64 123.76 198.81 123.43 199.15 123.15C199.49 122.87 199.91 122.64 200.4 122.46C200.89 122.28 201.42 122.15 201.97 122.06C202.52 121.97 203.01 121.93 203.42 121.93C204.09 121.93 204.67 122.02 205.18 122.2C205.69 122.38 206.11 122.63 206.46 122.95C206.81 123.27 207.07 123.65 207.25 124.08C207.43 124.51 207.52 124.98 207.52 125.49C207.52 126.42 207.32 127.23 206.92 127.9C206.52 128.57 206 129.2 205.36 129.77C204.97 130.12 204.57 130.46 204.15 130.79C203.73 131.12 203.31 131.46 202.89 131.8C202.47 132.14 202.06 132.48 201.67 132.82C201.28 133.16 200.92 133.52 200.6 133.89H205.06C205.42 133.89 205.71 134 205.94 134.21C206.17 134.43 206.28 134.69 206.28 134.99Z" fill="#6F655C"/>
<path d="M214.62 121.93C215.42 121.93 216.09 122.05 216.64 122.3C217.19 122.55 217.62 122.89 217.94 123.32C218.26 123.75 218.47 124.26 218.57 124.83C218.67 125.4 218.67 126.02 218.58 126.69L217.8 132.19C217.72 132.8 217.54 133.38 217.26 133.91C216.98 134.44 216.62 134.91 216.17 135.3C215.72 135.69 215.2 136 214.59 136.23C213.98 136.46 213.31 136.57 212.56 136.57C211.81 136.57 211.17 136.46 210.63 136.23C210.09 136 209.65 135.69 209.32 135.3C208.99 134.91 208.76 134.44 208.63 133.91C208.5 133.38 208.48 132.8 208.56 132.19L209.34 126.69C209.43 126.02 209.61 125.4 209.87 124.83C210.13 124.26 210.48 123.75 210.91 123.32C211.34 122.89 211.87 122.55 212.49 122.3C213.11 122.05 213.82 121.93 214.62 121.93ZM214.28 124.37C213.61 124.37 213.11 124.57 212.78 124.98C212.45 125.39 212.23 125.91 212.14 126.55L211.34 132.19C211.26 132.76 211.35 133.23 211.62 133.58C211.89 133.93 212.32 134.11 212.92 134.11C213.52 134.11 214 133.93 214.36 133.58C214.72 133.23 214.94 132.76 215.02 132.19L215.82 126.55C215.91 125.91 215.85 125.39 215.62 124.98C215.4 124.58 214.95 124.37 214.28 124.37Z" fill="#6F655C"/>
<path d="M225.14 125.55L223.44 126.51C223.23 126.63 223.02 126.73 222.83 126.81C222.64 126.89 222.43 126.93 222.2 126.93C221.92 126.93 221.66 126.86 221.42 126.71C221.18 126.56 221.06 126.3 221.06 125.93C221.06 125.64 221.13 125.38 221.28 125.17C221.43 124.96 221.61 124.78 221.84 124.65L226.14 122.33C226.42 122.18 226.69 122.11 226.94 122.11C227.37 122.11 227.7 122.24 227.95 122.49C228.2 122.74 228.29 123.06 228.24 123.45L226.58 135.27C226.53 135.62 226.35 135.92 226.04 136.17C225.73 136.42 225.39 136.55 225 136.55C224.61 136.55 224.3 136.42 224.06 136.17C223.82 135.92 223.73 135.62 223.78 135.27L225.14 125.55Z" fill="#6F655C"/>
<path d="M237.14 124.53C236.66 124.52 236.26 124.59 235.94 124.76C235.62 124.93 235.35 125.16 235.14 125.46C234.93 125.76 234.76 126.11 234.63 126.52C234.5 126.93 234.39 127.36 234.28 127.83C234.69 127.6 235.08 127.45 235.43 127.36C235.78 127.27 236.15 127.23 236.52 127.23C237.07 127.23 237.58 127.31 238.06 127.47C238.54 127.63 238.96 127.87 239.32 128.2C239.68 128.53 239.96 128.93 240.17 129.42C240.38 129.91 240.48 130.47 240.48 131.11C240.48 131.83 240.36 132.52 240.13 133.17C239.9 133.82 239.55 134.4 239.08 134.91C238.61 135.42 238.04 135.82 237.35 136.12C236.66 136.42 235.87 136.57 234.96 136.57C234.23 136.57 233.6 136.44 233.09 136.19C232.58 135.94 232.17 135.59 231.86 135.14C231.55 134.69 231.33 134.16 231.19 133.54C231.05 132.92 230.98 132.24 230.98 131.51C230.98 130.15 231.11 128.89 231.36 127.74C231.61 126.59 232 125.59 232.51 124.76C233.02 123.93 233.67 123.28 234.46 122.81C235.25 122.34 236.17 122.11 237.24 122.11C237.44 122.11 237.73 122.13 238.12 122.16C238.51 122.19 238.89 122.26 239.27 122.37C239.65 122.48 239.98 122.63 240.26 122.83C240.54 123.03 240.68 123.3 240.68 123.65C240.68 123.97 240.55 124.26 240.29 124.52C240.03 124.78 239.69 124.91 239.26 124.91C238.93 124.91 238.61 124.85 238.3 124.73C238 124.61 237.61 124.55 237.14 124.53ZM233.82 130.65C233.77 131.09 233.74 131.51 233.73 131.92C233.72 132.33 233.77 132.69 233.88 133C233.99 133.31 234.16 133.56 234.41 133.75C234.66 133.94 234.99 134.03 235.42 134.03C235.85 134.03 236.2 133.95 236.49 133.79C236.78 133.63 237.01 133.43 237.18 133.18C237.35 132.93 237.48 132.65 237.56 132.34C237.64 132.03 237.68 131.72 237.68 131.41C237.68 130.84 237.53 130.41 237.23 130.14C236.93 129.87 236.51 129.73 235.96 129.73C235.57 129.73 235.19 129.79 234.82 129.91C234.45 130.03 234.13 130.2 233.86 130.41L233.82 130.65Z" fill="#6F655C"/>
</g>
<defs>
<clipPath id="clip0">
<rect width="385.073" height="140.313" fill="white" transform="translate(0.461105 0.847153)"/>
</clipPath>
</defs>
</svg>
